<svg width="48" height="48" viewBox="0 0 48 48" fill="none" xmlns="http://www.w3.org/2000/svg">
<g id="Layer_3">
<path id="Vector" d="M46.8385 10.8312C46.6354 8.94683 45.1276 7.50464 43.2526 7.40151C36.1151 7.00464 30.626 5.11558 26.476 1.62339C25.0401 0.415576 22.9589 0.415576 21.5245 1.62339C17.3729 5.11558 11.8854 7.00464 4.74636 7.40151C2.87136 7.50464 1.36354 8.94683 1.16042 10.8296C0.682294 15.2703 0.740107 22.0484 3.73542 29.1234C8.79792 41.0812 18.6932 45.6499 22.712 47.0593C23.1323 47.2078 23.5667 47.2812 23.9995 47.2812C24.4323 47.2812 24.8667 47.2078 25.287 47.0593C29.3057 45.6515 39.1995 41.0828 44.2635 29.1234C47.2589 22.0484 47.3167 15.2703 46.8385 10.8312ZM41.6745 28.0281C37.0495 38.9531 28.0229 43.1218 24.3573 44.4062C24.1214 44.489 23.8792 44.489 23.6432 44.4062C19.9776 43.1203 10.951 38.9531 6.32604 28.0281C3.56511 21.5093 3.51511 15.2421 3.95729 11.1328C4.01198 10.6265 4.40886 10.2375 4.90104 10.2109C12.6698 9.77964 18.6995 7.67495 23.3339 3.77651C23.526 3.61401 23.7635 3.5312 23.9995 3.5312C24.2354 3.5312 24.4729 3.61245 24.6651 3.77495C29.2995 7.67183 35.3276 9.77651 43.0964 10.2078C43.5885 10.2359 43.987 10.6234 44.0401 11.1312C44.4854 15.2421 44.4339 21.5078 41.6745 28.0281Z" fill="white"/>
<path id="Vector_2" d="M28.5082 19.1964L21.8832 25.8199L19.4879 23.4261C18.9379 22.8761 18.0488 22.8761 17.5004 23.4261C16.9504 23.9746 16.9504 24.8652 17.5004 25.4136L20.8895 28.8027C21.1645 29.0777 21.5238 29.2152 21.8832 29.2152C22.2426 29.2152 22.602 29.0777 22.877 28.8027L30.4957 21.1839C31.0457 20.6355 31.0457 19.7449 30.4957 19.1964C29.9473 18.6464 29.0582 18.6464 28.5082 19.1964Z" fill="white"/>
</g>
</svg>
