<svg width="44" height="48" viewBox="0 0 44 48" fill="none" xmlns="http://www.w3.org/2000/svg">
<g id="Upload_File">
<path id="Vector" d="M41.6848 8.30938L35.6504 2.275C34.6473 1.27187 33.3129 0.71875 31.8941 0.71875H8.41602C4.19414 0.71875 0.759766 4.15313 0.759766 8.375V39.625C0.759766 43.8469 4.19414 47.2812 8.41602 47.2812H35.5863C39.8082 47.2812 43.2426 43.8469 43.2426 39.625V12.0656C43.241 10.6688 42.6738 9.29844 41.6848 8.30938ZM33.6613 4.26406L39.6957 10.2984C40.1613 10.7641 40.4285 11.4078 40.4285 12.0656V13.1156H34.1379C32.3285 13.1156 30.8566 11.6438 30.8566 9.83438V3.53125H31.8941C32.5613 3.53125 33.1895 3.79063 33.6613 4.26406ZM35.5848 44.4688H8.41602C5.7457 44.4688 3.57227 42.2953 3.57227 39.625V8.375C3.57227 5.70469 5.7457 3.53125 8.41602 3.53125H28.0457V9.83438C28.0457 13.1938 30.7801 15.9281 34.1395 15.9281H40.4301V39.625C40.4285 42.2953 38.2566 44.4688 35.5848 44.4688Z" fill="white"/>
<path id="Vector_2" d="M16.8405 27.189L20.5936 23.864V34.6984C20.5936 35.475 21.2233 36.1046 21.9999 36.1046C22.7764 36.1046 23.4061 35.475 23.4061 34.6984V23.864L27.1593 27.189C27.7421 27.7031 28.6296 27.65 29.1452 27.0687C29.6608 26.4875 29.6061 25.5984 29.0249 25.0828L23.3358 20.0421C22.9546 19.7046 22.478 19.5359 22.0014 19.5359C21.5233 19.5359 21.0468 19.7046 20.6671 20.0421L14.978 25.0828C14.3968 25.5984 14.3421 26.4859 14.8577 27.0687C15.3718 27.6468 16.2608 27.7031 16.8405 27.189Z" fill="white"/>
</g>
</svg>
