<svg width="44" height="44" viewBox="0 0 44 44" fill="none" xmlns="http://www.w3.org/2000/svg">
<g id="Layer_24">
<path id="Vector" d="M24.1676 21.2391H35.9988C37.5332 21.2391 38.7816 19.9906 38.7816 18.4562V18.0063C38.7816 15.1797 37.1488 12.75 34.7941 11.5375C35.9707 10.3422 36.702 8.70625 36.702 6.89844C36.702 3.25 33.7332 0.28125 30.0832 0.28125C26.4348 0.28125 23.466 3.25 23.466 6.89844C23.466 8.70469 24.1973 10.3406 25.3723 11.5359C23.016 12.7484 21.3848 15.1781 21.3848 18.0047V18.4547C21.3848 19.9906 22.6332 21.2391 24.1676 21.2391ZM30.0832 3.09375C32.1816 3.09375 33.8895 4.8 33.8895 6.89844C33.8895 8.99688 32.1816 10.7047 30.0832 10.7047C27.9848 10.7047 26.2785 8.99688 26.2785 6.89844C26.2785 4.8 27.9848 3.09375 30.0832 3.09375ZM24.1973 18.0047C24.1973 15.5297 26.2098 13.5172 28.6848 13.5172H31.4801C33.9551 13.5172 35.9676 15.5297 35.9676 18.0047V18.425L24.1973 18.4562V18.0047Z" fill="white"/>
<path id="Vector_2" d="M41.8066 28.0516L41.6441 27.8781C40.052 26.1984 37.4941 25.8969 35.5566 27.1578L31.4051 29.8641C31.4535 29.5906 31.4895 29.3141 31.4895 29.0281C31.4895 26.7797 29.891 24.8109 27.6879 24.3484L21.3129 23.0109C18.5941 22.4406 15.7254 23.0094 13.4348 24.5672L12.3535 25.3031C12.2426 23.475 10.7348 22.0156 8.88008 22.0156H5.33633C2.88633 22.0156 0.892578 24.0094 0.892578 26.4609V39.2766C0.892578 41.7266 2.88633 43.7219 5.33633 43.7219H8.88164C10.6895 43.7219 12.1645 42.3359 12.341 40.5734L20.9145 42.7375C21.7348 42.9469 22.5832 43.05 23.4301 43.05C24.2004 43.05 24.9723 42.9625 25.7238 42.7906L32.9176 41.1391C34.727 40.7234 36.3926 39.8234 37.7301 38.5391L41.641 34.7828C43.5254 32.9687 43.5973 29.9469 41.8066 28.0516ZM9.56445 40.2234C9.56445 40.6 9.2582 40.9062 8.88164 40.9062H5.33633C4.43633 40.9062 3.70508 40.175 3.70508 39.275V26.4594C3.70508 25.5594 4.43789 24.8281 5.33633 24.8281H8.88164C9.2582 24.8281 9.56445 25.1328 9.56445 25.5109V40.2234ZM39.691 32.7531L35.7816 36.5078C34.8098 37.4422 33.6004 38.0953 32.2879 38.3969L25.0941 40.0484C23.952 40.3109 22.7457 40.2969 21.6051 40.0094L12.3754 37.6781V28.6875L15.0176 26.8906C16.6801 25.7578 18.766 25.3516 20.7348 25.7609L27.1113 27.0984C28.0176 27.2891 28.6754 28.1 28.6754 29.025C28.6754 30.1109 27.7941 30.9953 26.7066 30.9953H22.3098C21.5332 30.9953 20.9035 31.625 20.9035 32.4016C20.9035 33.1781 21.5332 33.8078 22.3098 33.8078H29.0801C30.0082 33.8078 30.9098 33.5391 31.691 33.0312L37.091 29.5109C37.891 28.9906 38.9457 29.1156 39.5941 29.8031L39.7566 29.9766C40.4988 30.7609 40.4676 32.0062 39.691 32.7531Z" fill="white"/>
</g>
</svg>
