<svg width="48" height="44" viewBox="0 0 48 44" fill="none" xmlns="http://www.w3.org/2000/svg">
<g id="Bag">
<path id="Vector" d="M41.6922 7.73555H34.1312V4.55117C34.1312 2.17773 32.2016 0.248047 29.8281 0.248047H18.175C15.8016 0.248047 13.8719 2.17773 13.8719 4.55117V7.73555H6.30781C3.225 7.73555 0.71875 10.2418 0.71875 13.3246V13.3293V16.8887V35.8309C0.71875 40.198 4.27188 43.7512 8.63906 43.7512H39.3641C43.7281 43.7512 47.2797 40.1996 47.2797 35.8355V13.3246C47.2812 10.2434 44.7734 7.73555 41.6922 7.73555ZM16.6812 4.55117C16.6812 3.7293 17.35 3.05898 18.1734 3.05898H29.8266C30.6484 3.05898 31.3187 3.72773 31.3187 4.55117V7.73555H16.6828V4.55117H16.6812ZM44.4688 35.834C44.4688 38.648 42.1797 40.9371 39.3641 40.9371H8.63906C5.82188 40.9371 3.52969 38.6465 3.52969 35.8293V22.5559C4.74844 23.5027 6.25938 24.0887 7.91875 24.0887H8.27813V26.2996C8.27813 28.1668 9.79844 29.6871 11.6656 29.6871H15.0906C16.9594 29.6871 18.4781 28.1668 18.4781 26.2996V24.0887H29.5156V26.2996C29.5156 28.1668 31.0359 29.6871 32.9031 29.6871H36.3281C38.1969 29.6871 39.7156 28.1668 39.7156 26.2996V24.0887H40.075C41.7344 24.0887 43.2453 23.5012 44.4641 22.5559V35.834H44.4688ZM11.0906 24.0902H15.6687V26.3012C15.6687 26.6184 15.4094 26.8746 15.0922 26.8746H11.6672C11.35 26.8746 11.0906 26.6184 11.0906 26.3012V24.0902ZM32.3313 24.0902H36.9094V26.3012C36.9094 26.6184 36.65 26.8746 36.3328 26.8746H32.9078C32.5906 26.8746 32.3313 26.6184 32.3313 26.3012V24.0902ZM44.4688 16.8887C44.4688 19.309 42.5 21.2777 40.0797 21.2777H7.91875C5.49844 21.2777 3.52969 19.309 3.52969 16.8887V13.3293V13.3246C3.52969 11.7949 4.775 10.548 6.30625 10.548H41.6906C43.2219 10.548 44.4672 11.7934 44.4672 13.3246L44.4688 16.8887Z" fill="#99242C"/>
</g>
</svg>
