<svg width="36" height="45" viewBox="0 0 36 45" fill="none" xmlns="http://www.w3.org/2000/svg">
<g id="Layer_16">
<path id="Vector" d="M25.1516 24.7891C28.7141 22.45 31.0766 18.4266 31.0766 13.8562C31.075 6.64688 25.2094 0.78125 18 0.78125C10.7906 0.78125 4.925 6.64688 4.925 13.8562C4.925 18.4266 7.28594 22.4516 10.85 24.7891C4.72656 26.6891 0.265625 32.4047 0.265625 39.1453V39.6328C0.265625 42.1625 2.325 44.2219 4.85625 44.2219H31.1469C33.6766 44.2219 35.7375 42.1641 35.7375 39.6328V39.1453C35.7359 32.4047 31.275 26.6875 25.1516 24.7891ZM7.73906 13.8562C7.73906 8.19688 12.3422 3.59375 18 3.59375C23.6578 3.59375 28.2609 8.19688 28.2609 13.8562C28.2609 19.5156 23.6578 24.1172 18 24.1172C12.3422 24.1172 7.73906 19.5141 7.73906 13.8562ZM32.9219 39.6313C32.9219 40.6109 32.125 41.4062 31.1453 41.4062H4.85469C3.875 41.4062 3.07812 40.6109 3.07812 39.6313V39.1437C3.07812 32.4078 8.55625 26.9312 15.2906 26.9312H20.7078C27.4438 26.9312 32.9203 32.4094 32.9203 39.1437L32.9219 39.6313Z" fill="#99242C"/>
<path id="Vector_2" d="M23.2014 18.2642C23.6999 17.6704 23.6233 16.7829 23.0296 16.2829C22.4358 15.7829 21.5514 15.8595 21.0468 16.4548C19.5327 18.2579 16.4655 18.2579 14.953 16.4548C14.4514 15.8564 13.5624 15.7814 12.9702 16.2829C12.3764 16.7814 12.2983 17.6689 12.7983 18.2642C14.0921 19.8048 15.9874 20.6876 17.9999 20.6876C20.0124 20.6876 21.9077 19.8032 23.2014 18.2642Z" fill="#99242C"/>
</g>
</svg>
