<svg width="50" height="50" viewBox="0 0 50 50" fill="none" xmlns="http://www.w3.org/2000/svg">
<g id="Main Button /&#208;&#161;&#208;&#176;&#208;&#188;&#208;&#190;&#208;&#178;&#209;&#139;&#208;&#178;&#208;&#190;&#208;&#183;" clip-path="url(#clip0_299_5294)">
<path id="Vector" d="M49.4207 24.4103C47.4357 20.922 43.4374 13.9136 41.4424 10.432C40.3841 8.58698 38.4207 7.44865 36.2941 7.44531H33.2541V5.77865C33.2541 2.83365 30.8657 0.445312 27.9207 0.445312H5.7474C2.8024 0.445312 0.414062 2.83365 0.414062 5.77865V22.5286C0.425729 24.157 2.90406 24.1686 2.91406 22.5286V20.107H12.7474V22.1736C12.7174 23.1936 13.9941 23.807 14.7741 23.1536L22.9407 16.6753C23.5691 16.1886 23.5674 15.202 22.9407 14.7153L14.7741 8.23698C13.9924 7.58031 12.7191 8.20031 12.7474 9.21698V11.2836H2.92073V5.77198C2.92073 4.20698 4.18906 2.93865 5.75406 2.93865H27.9274C29.4924 2.93865 30.7607 4.20698 30.7607 5.77198V25.0286C30.7574 26.9136 29.2307 28.442 27.3441 28.4453H1.67073C0.980729 28.4453 0.420729 29.0053 0.420729 29.6953V36.6953C0.432396 41.062 3.85073 44.662 8.2124 44.8986C9.47573 51.0836 18.4724 51.1153 19.7824 44.9453H28.5607C29.8557 51.092 38.8207 51.092 40.1157 44.9453C45.0624 45.4536 49.6191 41.782 49.5874 36.6953V25.0286C49.5874 24.812 49.5291 24.5986 49.4207 24.4103ZM14.0041 13.7836C15.1291 13.7553 15.3441 12.7303 15.2541 11.8036L20.1574 15.6953L15.2541 19.5853C15.3441 18.6586 15.1257 17.6386 14.0041 17.612H2.92073V13.7836H14.0041ZM10.5841 43.6953C10.6591 39.2003 17.3474 39.2003 17.4207 43.6953C17.3391 48.1853 10.6624 48.187 10.5841 43.6953ZM30.9174 43.6953C30.9924 39.2003 37.6807 39.2003 37.7541 43.6953C37.6724 48.1853 30.9957 48.187 30.9174 43.6953ZM47.0874 36.6953C47.0891 40.4586 43.7107 42.8703 40.1207 42.4453C39.4791 39.2953 35.9841 37.0486 32.8674 37.9853C30.7424 38.502 29.0157 40.3153 28.5524 42.4453H19.7891C18.3807 36.312 9.65073 36.287 8.22406 42.422C5.23406 42.187 2.92573 39.6953 2.92073 36.6953V30.9453H27.3374C30.6024 30.9403 33.2491 28.2936 33.2541 25.0286V9.94531H36.2941C37.5241 9.94698 38.6591 10.6053 39.2724 11.672L42.1924 16.7786H40.0341C38.0557 16.7803 36.4524 18.3836 36.4507 20.362V27.362C36.4524 29.3403 38.0557 30.9436 40.0341 30.947H47.0874V36.6953ZM47.0874 28.4503H40.0341C39.4357 28.4486 38.9507 27.9636 38.9507 27.3653V20.362C38.9524 19.7636 39.4357 19.2803 40.0341 19.2786H43.6207L47.0874 25.362V28.4503Z" fill="#99242C"/>
</g>
<defs>
<clipPath id="clip0_299_5294">
<rect width="50" height="50" fill="white"/>
</clipPath>
</defs>
</svg>
