<svg width="50" height="50" viewBox="0 0 50 50" fill="none" xmlns="http://www.w3.org/2000/svg">
<g id="Main Button /&#208;&#162;&#208;&#154;" clip-path="url(#clip0_299_5288)">
<path id="Vector" d="M45.5873 10.3181L30.1373 1.5164C28.8583 0.802509 27.4179 0.427734 25.9531 0.427734C24.4883 0.427734 23.0479 0.802509 21.7689 1.5164L6.30893 10.3331C5.09913 11.0241 4.09333 12.0225 3.39327 13.2271C2.69322 14.4317 2.32375 15.7998 2.32227 17.1931C2.32227 17.5246 2.45396 17.8425 2.68838 18.077C2.9228 18.3114 3.24074 18.4431 3.57227 18.4431C3.90379 18.4431 4.22173 18.3114 4.45615 18.077C4.69057 17.8425 4.82227 17.5246 4.82227 17.1931C4.82218 16.2401 5.07403 15.3041 5.55229 14.4799C6.03055 13.6557 6.71822 12.9725 7.5456 12.4997L23.0006 3.6864C23.9017 3.18388 24.9163 2.92009 25.9481 2.92009C26.9799 2.92009 27.9945 3.18388 28.8956 3.6864L44.3423 12.4897C45.1724 12.9639 45.8626 13.6489 46.3431 14.4753C46.8236 15.3017 47.0775 16.2404 47.0789 17.1964V41.6564C47.0772 43.0916 46.5066 44.4676 45.4922 45.4829C44.4779 46.4982 43.1024 47.07 41.6673 47.0731H38.1839C37.8524 47.0731 37.5345 47.2048 37.3 47.4392C37.0656 47.6736 36.9339 47.9916 36.9339 48.3231C36.9339 48.6546 37.0656 48.9725 37.3 49.207C37.5345 49.4414 37.8524 49.5731 38.1839 49.5731H41.6673C43.7661 49.5704 45.7782 48.7355 47.2623 47.2514C48.7464 45.7673 49.5813 43.7552 49.5839 41.6564V17.1964C49.5819 15.7996 49.2114 14.4281 48.5096 13.2203C47.8078 12.0126 46.7998 11.0115 45.5873 10.3181Z" fill="#99242C"/>
<path id="Vector_2" d="M31.8331 15.74C32.1646 15.74 32.4826 15.6083 32.717 15.3739C32.9514 15.1395 33.0831 14.8215 33.0831 14.49C33.0831 14.1585 32.9514 13.8405 32.717 13.6061C32.4826 13.3717 32.1646 13.24 31.8331 13.24H20.0781C19.7466 13.24 19.4287 13.3717 19.1942 13.6061C18.9598 13.8405 18.8281 14.1585 18.8281 14.49C18.8281 14.8215 18.9598 15.1395 19.1942 15.3739C19.4287 15.6083 19.7466 15.74 20.0781 15.74H31.8331Z" fill="#99242C"/>
<path id="Vector_3" d="M0.421016 42.1669C0.423659 43.3802 0.90692 44.543 1.765 45.4008C2.62308 46.2586 3.78606 46.7414 4.99935 46.7436H5.12435C5.38282 47.5648 5.89649 48.2822 6.59068 48.7915C7.28486 49.3008 8.12339 49.5754 8.98435 49.5754C9.84531 49.5754 10.6838 49.3008 11.378 48.7915C12.0722 48.2822 12.5859 47.5648 12.8443 46.7436H21.6444C21.9032 47.5642 22.417 48.2809 23.111 48.7897C23.8049 49.2985 24.643 49.5727 25.5035 49.5727C26.364 49.5727 27.2021 49.2985 27.8961 48.7897C28.5901 48.2809 29.1038 47.5642 29.3627 46.7436H29.696C30.9113 46.7427 32.0766 46.2595 32.9359 45.4002C33.7953 44.5408 34.2785 43.3756 34.2794 42.1603V33.8969C34.281 33.7017 34.237 33.5088 34.151 33.3336L31.3177 27.6503C30.9398 26.8854 30.3549 26.242 29.6296 25.793C28.9042 25.344 28.0674 25.1074 27.2144 25.1103H22.1143C21.8194 24.1914 21.2414 23.3893 20.4631 22.8188C19.6848 22.2482 18.746 21.9384 17.781 21.9336H4.99935C3.78404 21.9345 2.61877 22.4176 1.75942 23.277C0.900067 24.1363 0.416899 25.3016 0.416016 26.5169V38.7736V38.7986L0.421016 42.1669ZM8.98935 47.0803C8.67827 47.0809 8.37397 46.9894 8.11482 46.8173C7.85568 46.6453 7.65329 46.4003 7.53319 46.1133C7.41309 45.8264 7.38065 45.5103 7.43998 45.2049C7.4993 44.8995 7.64772 44.6186 7.86652 44.3975C8.08532 44.1763 8.36471 44.025 8.66943 43.9624C8.97416 43.8999 9.29058 43.929 9.57879 44.046C9.867 44.1631 10.1141 44.3629 10.2889 44.6202C10.4637 44.8775 10.5584 45.1809 10.561 45.4919V45.5069C10.5584 45.9225 10.3918 46.3202 10.0975 46.6136C9.80316 46.907 9.40491 47.0723 8.98935 47.0736V47.0803ZM25.5093 47.0803C25.0936 47.0798 24.695 46.9151 24.4003 46.6219C24.1055 46.3287 23.9387 45.931 23.936 45.5153V45.4919C23.939 45.1814 24.0338 44.8787 24.2084 44.622C24.3831 44.3652 24.6298 44.1659 24.9176 44.0491C25.2053 43.9323 25.5212 43.9033 25.8254 43.9657C26.1296 44.0281 26.4085 44.1791 26.6271 44.3997C26.8456 44.6203 26.994 44.9007 27.0535 45.2055C27.113 45.5102 27.0809 45.8258 26.9614 46.1124C26.8419 46.399 26.6403 46.6439 26.3819 46.8161C26.1235 46.9883 25.8199 47.0802 25.5093 47.0803ZM29.6994 44.2469H29.366C29.1059 43.4282 28.5919 42.7135 27.8986 42.2063C27.2052 41.6991 26.3684 41.4257 25.5093 41.4257C24.6503 41.4257 23.8135 41.6991 23.1201 42.2063C22.4268 42.7135 21.9128 43.4282 21.6527 44.2469H12.846C12.5859 43.4282 12.0719 42.7135 11.3786 42.2063C10.6852 41.6991 9.84842 41.4257 8.98935 41.4257C8.13028 41.4257 7.29349 41.6991 6.60014 42.2063C5.90678 42.7135 5.39283 43.4282 5.13268 44.2469H4.99935C4.44682 44.2469 3.91691 44.0274 3.52621 43.6367C3.13551 43.246 2.91602 42.7161 2.91602 42.1636V40.0286H17.7677C18.983 40.0277 20.1483 39.5445 21.0076 38.6852C21.867 37.8258 22.3501 36.6606 22.351 35.4453V27.6119H24.916V32.6119C24.9169 33.3852 25.2245 34.1266 25.7713 34.6733C26.3181 35.2201 27.0594 35.5277 27.8327 35.5286H31.7827V42.1669C31.7809 42.7183 31.5606 43.2465 31.1701 43.6358C30.7796 44.025 30.2507 44.2436 29.6994 44.2436V44.2469ZM29.0777 28.7736L31.206 33.0403H27.8327C27.7223 33.0398 27.6166 32.9958 27.5385 32.9177C27.4605 32.8397 27.4165 32.734 27.416 32.6236V27.6436C27.7662 27.6736 28.1029 27.7929 28.3938 27.9902C28.6847 28.1875 28.9202 28.456 29.0777 28.7703V28.7736ZM2.91602 26.5219C2.91646 25.9695 3.13609 25.4399 3.5267 25.0493C3.9173 24.6587 4.44695 24.439 4.99935 24.4386H17.7727C18.3252 24.4386 18.8551 24.6581 19.2458 25.0488C19.6365 25.4395 19.856 25.9694 19.856 26.5219V35.4453C19.856 35.9978 19.6365 36.5277 19.2458 36.9184C18.8551 37.3091 18.3252 37.5286 17.7727 37.5286H2.92102V37.3469V37.3219V26.5219H2.91602Z" fill="#99242C"/>
</g>
<defs>
<clipPath id="clip0_299_5288">
<rect width="50" height="50" fill="white"/>
</clipPath>
</defs>
</svg>
