<svg width="50" height="50" viewBox="0 0 50 50" fill="none" xmlns="http://www.w3.org/2000/svg">
<g id="Main Button /&#208;&#152;&#208;&#189;&#208;&#180;&#208;&#184;&#208;&#178;&#208;&#184;&#208;&#180; &#209;&#131;&#209;&#129;&#208;&#187;&#208;&#190;&#208;&#178;&#208;&#184;&#209;&#143;" clip-path="url(#clip0_299_5313)">
<path id="Vector" d="M39.1489 18.7754C38.3043 18.7754 37.4787 19.0259 36.7764 19.4951C36.0742 19.9644 35.5269 20.6314 35.2038 21.4117C34.8806 22.1921 34.7962 23.0507 34.9611 23.879C35.126 24.7074 35.5328 25.4682 36.1302 26.0653C36.7275 26.6624 37.4885 27.069 38.3169 27.2335C39.1453 27.3981 40.0039 27.3133 40.7841 26.9899C41.5643 26.6664 42.2311 26.1189 42.7001 25.4165C43.1691 24.714 43.4192 23.8883 43.4189 23.0437C43.4176 21.9118 42.9672 20.8267 42.1667 20.0264C41.3661 19.2262 40.2808 18.7763 39.1489 18.7754ZM39.1489 24.8137C38.7988 24.8137 38.4566 24.7099 38.1655 24.5154C37.8745 24.3209 37.6476 24.0445 37.5136 23.7211C37.3797 23.3976 37.3446 23.0418 37.4129 22.6984C37.4812 22.3551 37.6498 22.0397 37.8973 21.7921C38.1449 21.5446 38.4603 21.376 38.8036 21.3077C39.1469 21.2394 39.5028 21.2745 39.8263 21.4085C40.1497 21.5424 40.4261 21.7693 40.6206 22.0604C40.8151 22.3514 40.9189 22.6937 40.9189 23.0437C40.9189 23.5132 40.7324 23.9634 40.4005 24.2953C40.0685 24.6272 39.6183 24.8137 39.1489 24.8137Z" fill="#99242C"/>
<path id="Vector_2" d="M39.1498 12.6104C36.3835 12.6134 33.7314 13.7136 31.7752 15.6695C29.819 17.6254 28.7184 20.2774 28.7148 23.0437C28.7148 27.2454 33.9182 34.0987 37.0182 37.8104C37.2786 38.1228 37.6045 38.3742 37.9729 38.5467C38.3413 38.7192 38.7431 38.8087 39.1498 38.8087C39.5566 38.8087 39.9584 38.7192 40.3268 38.5467C40.6951 38.3742 41.0211 38.1228 41.2815 37.8104C44.3815 34.0987 49.5832 27.2454 49.5832 23.0437C49.5801 20.2775 48.4799 17.6256 46.5239 15.6696C44.568 13.7137 41.916 12.6134 39.1498 12.6104ZM39.3632 36.207C39.342 36.2452 39.3109 36.277 39.2733 36.2992C39.2356 36.3213 39.1927 36.333 39.149 36.333C39.1053 36.333 39.0624 36.3213 39.0248 36.2992C38.9871 36.277 38.9561 36.2452 38.9348 36.207C34.1015 30.4204 31.2148 25.5004 31.2148 23.0404C31.2451 20.956 32.0943 18.9672 33.5789 17.5039C35.0636 16.0406 37.0644 15.2203 39.149 15.2203C41.2336 15.2203 43.2344 16.0406 44.7191 17.5039C46.2038 18.9672 47.053 20.956 47.0832 23.0404C47.0832 25.5004 44.1982 30.4204 39.3632 36.207Z" fill="#99242C"/>
<path id="Vector_3" d="M6.66602 21.393H16.5927C18.2496 21.3908 19.838 20.7316 21.0097 19.5599C22.1813 18.3883 22.8405 16.7999 22.8427 15.143V6.6663C22.84 5.00967 22.1807 3.42166 21.0091 2.2504C19.8375 1.07913 18.2493 0.420173 16.5927 0.417969H6.66602C5.00938 0.420173 3.4212 1.07913 2.24962 2.2504C1.07804 3.42166 0.418661 5.00967 0.416016 6.6663V15.143C0.41822 16.7999 1.07741 18.3883 2.24903 19.5599C3.42066 20.7316 5.00909 21.3908 6.66602 21.393ZM13.436 2.91797V6.19964L12.701 5.6663C12.3891 5.44183 12.0145 5.32106 11.6302 5.32106C11.2459 5.32106 10.8713 5.44183 10.5593 5.6663L9.82268 6.19464V2.91797H13.436ZM2.91602 6.6663C2.91778 5.67244 3.31349 4.7198 4.01641 4.01719C4.71934 3.31457 5.67215 2.91929 6.66602 2.91797H7.32268V7.49964C7.32222 7.83733 7.41504 8.1686 7.5909 8.45689C7.76677 8.74518 8.01884 8.9793 8.31932 9.13342C8.6198 9.28753 8.95701 9.35567 9.29375 9.33029C9.63049 9.30492 9.95369 9.18704 10.2277 8.98964L11.6293 7.98964L13.0293 8.98964C13.3033 9.18751 13.6267 9.30578 13.9637 9.3314C14.3007 9.35702 14.6382 9.28899 14.939 9.13481C15.2398 8.98064 15.4921 8.74633 15.668 8.45776C15.8439 8.1692 15.9367 7.83761 15.936 7.49964V2.91797H16.5927C17.5865 2.91929 18.5394 3.31457 19.2423 4.01719C19.9452 4.7198 20.3409 5.67244 20.3427 6.6663V15.143C20.3414 16.1371 19.9458 17.0902 19.2429 17.7932C18.5399 18.4961 17.5868 18.8916 16.5927 18.893H6.66602C5.67186 18.8916 4.7188 18.4961 4.01583 17.7932C3.31285 17.0902 2.91734 16.1371 2.91602 15.143V6.6663Z" fill="#99242C"/>
<path id="Vector_4" d="M6.14935 46.7136H35.2444C35.5426 47.6504 36.166 48.4496 37.0019 48.9669C37.8379 49.4843 38.8312 49.6857 39.8027 49.5348C40.7741 49.3839 41.6595 48.8906 42.2991 48.144C42.9386 47.3974 43.2901 46.4467 43.2901 45.4636C43.2901 44.4805 42.9386 43.5299 42.2991 42.7833C41.6595 42.0367 40.7741 41.5434 39.8027 41.3925C38.8312 41.2415 37.8379 41.4429 37.0019 41.9603C36.166 42.4777 35.5426 43.2769 35.2444 44.2136H6.14935C5.29182 44.2136 4.4694 43.873 3.86304 43.2666C3.25667 42.6602 2.91602 41.8378 2.91602 40.9803C2.91602 40.1227 3.25667 39.3003 3.86304 38.694C4.4694 38.0876 5.29182 37.747 6.14935 37.747H20.3993C21.9037 37.7213 23.3377 37.1057 24.3924 36.0328C25.4472 34.9599 26.0382 33.5156 26.0382 32.0111C26.0382 30.5066 25.4472 29.0623 24.3924 27.9894C23.3377 26.9165 21.9037 26.3009 20.3993 26.2753H15.276C14.9778 25.3385 14.3544 24.5393 13.5184 24.022C12.6825 23.5046 11.6891 23.3032 10.7177 23.4541C9.7463 23.605 8.86086 24.0983 8.2213 24.8449C7.58174 25.5915 7.23022 26.5422 7.23022 27.5253C7.23022 28.5084 7.58174 29.459 8.2213 30.2056C8.86086 30.9522 9.7463 31.4455 10.7177 31.5964C11.6891 31.7474 12.6825 31.546 13.5184 31.0286C14.3544 30.5112 14.9778 29.712 15.276 28.7753H20.3993C21.2448 28.7945 22.0492 29.1438 22.6404 29.7486C23.2316 30.3533 23.5626 31.1654 23.5626 32.0111C23.5626 32.8568 23.2316 33.6689 22.6404 34.2737C22.0492 34.8784 21.2448 35.2278 20.3993 35.247H6.14935C4.62877 35.247 3.17048 35.851 2.09527 36.9262C1.02006 38.0014 0.416016 39.4597 0.416016 40.9803C0.416016 42.5009 1.02006 43.9592 2.09527 45.0344C3.17048 46.1096 4.62877 46.7136 6.14935 46.7136ZM39.1493 43.8436C39.4698 43.8433 39.7832 43.938 40.0498 44.1158C40.3165 44.2936 40.5244 44.5465 40.6472 44.8425C40.7701 45.1385 40.8024 45.4643 40.7401 45.7786C40.6778 46.093 40.5236 46.3818 40.2971 46.6085C40.0706 46.8353 39.782 46.9897 39.4677 47.0524C39.1534 47.115 38.8276 47.083 38.5315 46.9605C38.2353 46.8379 37.9822 46.6303 37.8041 46.3638C37.6261 46.0974 37.531 45.7841 37.531 45.4636C37.5315 45.0344 37.702 44.6228 38.0054 44.3192C38.3088 44.0155 38.7201 43.8445 39.1493 43.8436ZM11.371 29.1453C11.0506 29.1453 10.7374 29.0503 10.471 28.8723C10.2046 28.6943 9.99695 28.4412 9.87433 28.1452C9.75172 27.8492 9.71964 27.5235 9.78214 27.2092C9.84465 26.895 9.99894 26.6063 10.2255 26.3798C10.4521 26.1532 10.7407 25.9989 11.055 25.9364C11.3692 25.8739 11.6949 25.906 11.991 26.0286C12.287 26.1512 12.54 26.3589 12.718 26.6253C12.896 26.8917 12.991 27.2049 12.991 27.5253C12.991 27.9549 12.8203 28.367 12.5165 28.6708C12.2127 28.9746 11.8007 29.1453 11.371 29.1453Z" fill="#99242C"/>
</g>
<defs>
<clipPath id="clip0_299_5313">
<rect width="50" height="50" fill="white"/>
</clipPath>
</defs>
</svg>
